<?xml version="1.0" encoding="UTF-8"?>
<svg id="Layer_1" xmlns="http://www.w3.org/2000/svg" version="1.1" viewBox="0 0 209.3 203.7">
  <!-- Generator: Adobe Illustrator 29.2.1, SVG Export Plug-In . SVG Version: 2.1.0 Build 116)  -->
  <path d="M204.6,101.8l-29.5-50.7h-54.8L93,4h-58.9L4.6,54.7l27.4,47.2-27.4,47.2,29.5,50.7h58.9l27.4-47.2h54.8l29.5-50.7ZM38.2,11.1h50.7l25.3,43.6-25.3,43.6h-50.7L12.8,54.7,38.2,11.1ZM88.9,192.6h-50.7l-25.3-43.6,25.3-43.6h50.7l25.3,43.6-25.3,43.6ZM120.4,145.4l-25.3-43.6,25.3-43.6h50.7l25.4,43.6-25.4,43.6h-50.7Z"/>
  <path d="M95.3,203.7H31.8L0,149l27.4-47.2L0,54.7,31.8,0h63.5l27.4,47.1h54.8l31.8,54.7-31.8,54.7h-54.8l-27.4,47.1ZM40.5,188.6h46.1l23-39.6-23-39.6h-46.1l-23,39.6,23,39.6ZM122.7,141.4h46.1l23-39.6-23-39.6h-46.1l-23,39.6,23,39.6ZM40.5,94.3h46.1l23-39.6-23-39.6h-46.1l-23,39.6,23,39.6Z"/>
</svg>