<?xml version="1.0" encoding="UTF-8"?>
<svg id="Layer_1" xmlns="http://www.w3.org/2000/svg" version="1.1" viewBox="0 0 72.9 65.8">
  <!-- Generator: Adobe Illustrator 29.2.1, SVG Export Plug-In . SVG Version: 2.1.0 Build 116)  -->
  <path d="M7,0C3.1,0,0,3.1,0,7v42c0,3.9,3.1,7,7,7h35.8c-.1-.1-.3-.3-.4-.4-.5-.5-1-1-1.4-1.6H7c-2.8,0-5-2.2-5-5v-31h60v15c.6.4,1.9,1.7,2,1.8V13c0-3.9-3.1-7-7-7h-30c-1.1,0-2.1-.4-3-1l-4.8-3.6c-1.2-.9-2.7-1.4-4.2-1.4H7ZM7,2h8c1.1,0,2.1.4,3,1l4.8,3.6c1.2.9,2.7,1.4,4.2,1.4h30c2.8,0,5,2.2,5,5v3H2V7c0-2.8,2.2-5,5-5ZM53,32c-7.2,0-13,5.8-13,13s5.8,13,13,13,5.8-1,8-2.7l10.2,10.2c.2.2.5.3.7.3s.5,0,.7-.3c.4-.4.4-1,0-1.4l-10.2-10.2c2.2-2.3,3.6-5.5,3.6-8.9,0-7.2-5.8-13-13-13ZM53,34c6.1,0,11,4.9,11,11s-4.9,11-11,11-11-4.9-11-11,4.9-11,11-11Z"/>
</svg>