<svg width="1300" height="221" viewBox="0 0 1300 221" fill="none" xmlns="http://www.w3.org/2000/svg">
<path fill-rule="evenodd" clip-rule="evenodd" d="M749.127 170.879L776.181 51.9863H805.317L778.262 170.879H749.127ZM778.956 32.404L785.662 0H817.573L810.635 32.404H778.956ZM824.912 51.9863L797.858 170.879H826.994L841.871 105.884L841.793 106.537C844.259 95.9687 848.807 87.8094 855.436 82.0591C862.065 76.1533 869.926 73.2004 879.022 73.2004C886.576 73.2004 891.894 75.4539 894.977 79.961C898.06 84.3126 898.6 90.84 896.596 99.5432L880.409 170.879H909.776L926.657 97.212C929.894 82.7584 928.352 71.2577 922.032 62.7099C915.865 54.0067 906.077 49.6551 892.665 49.6551C883.261 49.6551 874.243 52.2194 865.61 57.3481C858.91 61.2079 853.324 66.1443 848.853 72.1572L853.355 51.9863H824.912ZM975.523 221C965.503 221 956.408 219.446 948.237 216.338C940.221 213.385 933.747 209.033 928.814 203.283C924.035 197.688 921.568 190.927 921.414 183.001H948.469C949.548 187.197 952.4 190.383 957.024 192.559C961.803 194.735 968.509 195.823 977.142 195.823C985.775 195.823 993.02 193.569 998.878 189.062C1004.89 184.711 1008.9 178.183 1010.9 169.48L1014.2 155.593C1010.84 160.311 1006.58 164.163 1001.42 167.149C994.176 171.19 985.775 173.21 976.217 173.21C962.497 173.21 951.629 168.936 943.613 160.388C935.751 151.84 931.82 139.873 931.82 124.487C931.82 114.23 933.438 104.594 936.676 95.5802C939.913 86.5661 944.461 78.6399 950.319 71.8017C956.331 64.9634 963.191 59.6016 970.899 55.7163C978.607 51.6755 986.854 49.6551 995.641 49.6551C1003.5 49.6551 1010.29 51.1315 1015.99 54.0844C1021.69 57.0373 1026.09 61.0781 1029.17 66.2068C1031.32 69.6718 1032.64 73.5141 1033.15 77.7336L1038.88 51.9863H1067.09L1039.81 172.277C1036.42 187.663 1029.25 199.63 1018.3 208.178C1007.51 216.726 993.252 221 975.523 221ZM987.548 149.898C991.864 149.898 995.949 149.121 999.803 147.566C1003.81 145.857 1007.36 143.603 1010.44 140.806C1013.52 137.853 1016.22 134.434 1018.53 130.549C1020.85 126.663 1022.54 122.545 1023.62 118.193C1024.85 113.686 1025.47 109.101 1025.47 104.439C1025.47 95.1139 1023.08 87.8094 1018.3 82.5253C1013.68 77.2412 1007.51 74.5992 999.803 74.5992C992.558 74.5992 986.083 76.775 980.379 81.1266C974.675 85.3228 970.205 90.9177 966.968 97.9114C963.73 104.75 962.112 112.21 962.112 120.291C962.112 129.461 964.424 136.687 969.049 141.972C973.674 147.256 979.84 149.898 987.548 149.898ZM1110.36 173.676C1099.72 173.676 1090.47 172.044 1082.61 168.781C1074.75 165.361 1068.58 160.699 1064.11 154.793C1059.79 148.732 1057.71 141.816 1057.87 134.045H1084.46C1084.61 137.931 1085.77 141.272 1087.93 144.07C1090.08 146.867 1093.17 149.043 1097.18 150.597C1101.18 152.151 1105.96 152.928 1111.51 152.928C1118.6 152.928 1124.08 151.685 1127.93 149.198C1131.78 146.712 1133.71 143.215 1133.71 138.708C1133.71 135.6 1132.71 133.035 1130.7 131.015C1128.7 128.994 1125.54 127.207 1121.22 125.653L1103.65 119.126C1092.86 115.24 1085.07 110.811 1080.3 105.838C1075.67 100.864 1073.36 94.7254 1073.36 87.4209C1073.36 79.8056 1075.36 73.2004 1079.37 67.6055C1083.53 61.8551 1089.24 57.4258 1096.48 54.3175C1103.88 51.2092 1112.36 49.6551 1121.92 49.6551C1131.48 49.6551 1139.8 51.2092 1146.89 54.3175C1154.14 57.2704 1159.76 61.3889 1163.77 66.673C1167.93 71.9571 1170.01 78.096 1170.01 85.0897H1143.42C1143.42 81.9814 1142.5 79.3393 1140.65 77.1635C1138.8 74.8323 1136.1 73.1227 1132.55 72.0348C1129.16 70.9469 1125.08 70.403 1120.3 70.403C1113.82 70.403 1108.81 71.4909 1105.27 73.6667C1101.88 75.8425 1100.18 78.9508 1100.18 82.9916C1100.18 85.789 1101.26 88.198 1103.42 90.2184C1105.73 92.0833 1109.58 94.026 1114.98 96.0464L1133.48 102.807C1142.57 106.071 1149.36 110.422 1153.83 115.862C1158.3 121.146 1160.53 127.596 1160.53 135.211C1160.53 142.826 1158.45 149.587 1154.29 155.493C1150.13 161.243 1144.27 165.75 1136.72 169.014C1129.16 172.122 1120.38 173.676 1110.36 173.676ZM658.159 3.03062L619.773 170.879H648.909L664.007 104.859C666.834 95.2039 671.359 87.604 677.582 82.0591C684.211 76.1533 692.073 73.2004 701.169 73.2004C708.722 73.2004 714.041 75.454 717.124 79.961C720.207 84.3126 720.747 90.84 718.743 99.5433L702.556 170.879H731.923L748.803 97.212C752.041 82.7585 750.499 71.2578 744.179 62.7099C738.012 54.0067 728.223 49.6551 714.811 49.6551C705.408 49.6551 696.39 52.2194 687.757 57.3481C681.513 61.0577 676.156 65.7023 671.686 71.2819L687.294 3.03062H658.159ZM591.273 173.21C577.091 173.21 567.148 169.402 561.444 161.787C555.894 154.172 554.661 143.448 557.744 129.616L570.277 75.0654H547.57L552.657 51.9862H575.58L581.793 24.944L613.472 13.9873L604.734 51.9862H636.596L631.277 75.0654H599.427L586.186 132.647C584.953 138.397 585.57 142.671 588.036 145.468C590.503 148.11 594.742 149.431 600.754 149.431C603.837 149.431 606.458 149.276 608.616 148.965C610.929 148.499 613.01 147.955 614.859 147.333L609.541 170.179C607.537 171.112 604.993 171.811 601.91 172.277C598.981 172.899 595.436 173.21 591.273 173.21ZM450.615 165.284C460.018 170.568 470.964 173.21 483.45 173.21C497.325 173.21 508.809 169.946 517.905 163.419C527.154 156.891 533.706 148.033 537.56 136.843H510.043C507.884 141.661 504.493 145.235 499.868 147.566C495.243 149.898 489.848 151.063 483.682 151.063C473.045 151.063 464.797 147.722 458.939 141.039C454.598 135.834 451.908 128.918 450.872 120.291H539.872C540.18 118.426 540.412 116.561 540.566 114.696C540.72 112.831 540.797 110.811 540.797 108.635C540.797 96.8235 538.408 86.4884 533.629 77.6298C528.85 68.7711 522.144 61.9328 513.511 57.115C504.878 52.1417 494.704 49.6551 482.988 49.6551C470.655 49.6551 459.864 52.2971 450.615 57.5812C441.365 62.7099 434.12 69.9367 428.879 79.2616C423.791 88.4311 421.248 99.077 421.248 111.199C421.248 123.322 423.791 134.045 428.879 143.37C434.12 152.695 441.365 160 450.615 165.284ZM511.198 99.7764H451.334C452.602 92.5237 455.137 86.6179 458.939 82.0591C464.797 75.2208 472.659 71.8017 482.525 71.8017C491.621 71.8017 498.712 74.5992 503.799 80.1941C508 84.8141 510.466 91.3415 511.198 99.7764ZM321.247 170.879V1.39875H350.383V101.74L395.705 51.9863H430.853L376.67 108.292L433.165 170.879H397.324L350.383 116.823V170.879H321.247ZM275.551 160.621C276.013 164.351 276.63 167.77 277.401 170.879H306.536C305.457 166.527 304.609 162.409 303.993 158.523C303.53 154.638 303.299 150.83 303.299 147.1V93.2489C303.299 78.9508 299.137 68.1494 290.812 60.8449C282.488 53.385 270.232 49.6551 254.046 49.6551C238.476 49.6551 226.066 53.0742 216.817 59.9125C207.567 66.7507 202.326 75.6871 201.093 86.7215H229.072C229.997 81.9037 232.464 78.2514 236.472 75.7648C240.634 73.1227 246.184 71.8017 253.121 71.8017C260.212 71.8017 265.453 73.4335 268.845 76.6973C272.391 79.8056 274.163 84.468 274.163 90.6846V96.6226L242.715 101.408C228.379 103.584 217.279 107.858 209.417 114.23C201.555 120.602 197.624 129.227 197.624 140.107C197.624 150.209 201.093 158.29 208.03 164.351C215.121 170.257 224.602 173.21 236.472 173.21C246.646 173.21 255.202 171.034 262.139 166.682C267.711 163.141 272.046 158.351 275.144 152.314C275.214 155.415 275.349 158.184 275.551 160.621ZM274.163 129.15V115.279L247.571 119.359C240.634 120.447 235.393 122.389 231.847 125.187C228.456 127.984 226.76 131.87 226.76 136.843C226.76 141.35 228.379 144.847 231.616 147.333C234.853 149.665 239.324 150.83 245.028 150.83C253.352 150.83 260.289 148.732 265.839 144.536C271.388 140.34 274.163 135.211 274.163 129.15ZM0 170.879V51.9863H28.4421V73.8453C32.2551 67.2171 37.2652 61.7957 43.4725 57.5812C51.0262 52.2971 59.8132 49.6551 69.8334 49.6551C81.8577 49.6551 91.3384 53.1519 98.2755 60.1456C101.984 63.8015 104.702 68.035 106.428 72.846C110.122 66.6702 115.035 61.5819 121.168 57.5812C129.03 52.2971 138.125 49.6551 148.454 49.6551C160.786 49.6551 170.421 53.2296 177.358 60.3787C184.45 67.3724 187.995 76.6973 187.995 88.3534V170.879H158.628V94.1814C158.628 87.1878 156.932 82.0591 153.541 78.7954C150.15 75.3762 145.294 73.6667 138.973 73.6667C133.269 73.6667 128.105 74.9877 123.48 77.6298C118.856 80.2718 115.233 84.0018 112.612 88.8196C109.991 93.6375 108.681 99.2324 108.681 105.604V170.879H79.3141V94.1814C79.3141 87.1878 77.5413 82.0591 73.9957 78.7954C70.6042 75.3762 65.7482 73.6667 59.4278 73.6667C53.8781 73.6667 48.7909 74.9877 44.1661 77.6298C39.5414 80.2718 35.8416 84.0018 33.0668 88.8196C30.4461 93.6375 29.1358 99.2324 29.1358 105.604V170.879H0ZM1221.64 109.321C1228.46 112.253 1235.78 113.718 1243.6 113.718C1251.42 113.718 1258.74 112.253 1265.56 109.321C1272.38 106.39 1278.34 102.346 1283.46 97.1912C1288.67 91.9349 1292.73 85.8699 1295.64 78.9963C1298.55 72.1226 1300 64.7436 1300 56.8591C1300 48.9746 1298.55 41.5956 1295.64 34.722C1292.73 27.8483 1288.67 21.8339 1283.46 16.6787C1278.34 11.4224 1272.38 7.3285 1265.56 4.3971C1258.74 1.4657 1251.42 0 1243.6 0C1235.78 0 1228.46 1.4657 1221.64 4.3971C1214.82 7.3285 1208.81 11.4224 1203.59 16.6787C1198.48 21.8339 1194.47 27.8483 1191.56 34.722C1188.66 41.5956 1187.2 48.9746 1187.2 56.8591C1187.2 64.7436 1188.66 72.1226 1191.56 78.9963C1194.47 85.8699 1198.48 91.9349 1203.59 97.1912C1208.81 102.346 1214.82 106.39 1221.64 109.321ZM1261.95 101.437C1256.23 103.964 1250.12 105.227 1243.6 105.227C1236.98 105.227 1230.77 103.964 1224.95 101.437C1219.24 98.9096 1214.17 95.4222 1209.76 90.9746C1205.45 86.5269 1202.04 81.3717 1199.53 75.5089C1197.13 69.6461 1195.92 63.4295 1195.92 56.8591C1195.92 50.2887 1197.13 44.0721 1199.53 38.2093C1202.04 32.3465 1205.45 27.1913 1209.76 22.7436C1214.17 18.296 1219.24 14.8086 1224.95 12.2816C1230.77 9.75449 1236.98 8.49096 1243.6 8.49096C1250.12 8.49096 1256.23 9.75449 1261.95 12.2816C1267.76 14.8086 1272.83 18.296 1277.14 22.7436C1281.55 27.1913 1285.01 32.3465 1287.52 38.2093C1290.02 44.0721 1291.28 50.2887 1291.28 56.8591C1291.28 63.4295 1290.02 69.6461 1287.52 75.5089C1285.01 81.3717 1281.55 86.5269 1277.14 90.9746C1272.83 95.4222 1267.76 98.9096 1261.95 101.437ZM1219.99 24.2599V89.4583H1231.72V61.8627H1245.56C1249.47 61.8627 1252.37 62.8735 1254.28 64.8952C1256.18 66.9169 1257.14 69.9493 1257.14 73.9927V81.7255C1257.14 83.4439 1257.19 84.9602 1257.29 86.2742C1257.39 87.4872 1257.54 88.5486 1257.74 89.4583H1269.62C1269.42 87.841 1269.22 86.4258 1269.02 85.2129C1268.92 83.8988 1268.87 82.7363 1268.87 81.7255V70.9602C1268.87 66.3104 1267.46 62.7219 1264.66 60.1948C1263.1 58.7975 1261.23 57.8173 1259.03 57.2545C1266.29 54.2741 1269.92 49.2398 1269.92 42.1516C1269.92 36.592 1267.97 32.2454 1264.05 29.1119C1260.14 25.8772 1254.73 24.2599 1247.81 24.2599H1219.99ZM1231.72 52.462V34.1155H1247.21C1250.82 34.1155 1253.53 34.8736 1255.33 36.3898C1257.24 37.9061 1258.19 40.1804 1258.19 43.2129C1258.19 46.1443 1257.24 48.4187 1255.33 50.036C1253.43 51.6533 1250.72 52.462 1247.21 52.462H1231.72Z" fill="#2A2A2A"/>
</svg>
