<svg width="148" height="25" viewBox="0 0 148 25" fill="none" xmlns="http://www.w3.org/2000/svg">
<path fill-rule="evenodd" clip-rule="evenodd" d="M85.2852 19.3302L88.3652 5.8808H91.6822L88.6022 19.3302H85.2852ZM88.6812 3.66561L89.4446 0H93.0775L92.2877 3.66561H88.6812ZM93.9131 5.8808L90.8331 19.3302H94.1501L95.8438 11.9778L95.8349 12.0517C96.1157 10.8562 96.6334 9.93319 97.3881 9.2827C98.1427 8.61463 99.0378 8.28059 100.073 8.28059C100.933 8.28059 101.539 8.53551 101.89 9.04536C102.241 9.53762 102.302 10.276 102.074 11.2605L100.231 19.3302H103.575L105.496 10.9968C105.865 9.36182 105.689 8.06083 104.97 7.09388C104.268 6.10935 103.153 5.61709 101.626 5.61709C100.556 5.61709 99.5292 5.90717 98.5464 6.48734C97.7836 6.92397 97.1477 7.48239 96.6386 8.16259L97.1511 5.8808H93.9131ZM111.06 25C109.919 25 108.883 24.8242 107.953 24.4726C107.041 24.1385 106.303 23.6463 105.742 22.9958C105.198 22.3629 104.917 21.5981 104.899 20.7015H107.98C108.102 21.1762 108.427 21.5366 108.954 21.7827C109.498 22.0288 110.261 22.1519 111.244 22.1519C112.227 22.1519 113.052 21.897 113.718 21.3871C114.403 20.8949 114.859 20.1565 115.087 19.1719L115.462 17.6011C115.08 18.1347 114.595 18.5704 114.008 18.9082C113.183 19.3653 112.227 19.5939 111.139 19.5939C109.577 19.5939 108.339 19.1104 107.427 18.1435C106.532 17.1765 106.084 15.8228 106.084 14.0823C106.084 12.9219 106.268 11.8319 106.637 10.8122C107.005 9.79255 107.523 8.89592 108.19 8.12236C108.875 7.34881 109.656 6.74227 110.533 6.30274C111.411 5.84564 112.35 5.61709 113.35 5.61709C114.245 5.61709 115.017 5.78411 115.667 6.11814C116.316 6.45218 116.816 6.90928 117.167 7.48945C117.412 7.88143 117.562 8.31607 117.62 8.79339L118.273 5.8808H121.484L118.378 19.4884C117.992 21.2289 117.176 22.5826 115.93 23.5496C114.701 24.5165 113.078 25 111.06 25ZM112.429 16.9568C112.92 16.9568 113.385 16.8688 113.824 16.693C114.28 16.4996 114.684 16.2447 115.035 15.9283C115.386 15.5942 115.693 15.2075 115.956 14.7679C116.219 14.3284 116.412 13.8625 116.535 13.3703C116.676 12.8604 116.746 12.3418 116.746 11.8143C116.746 10.7595 116.474 9.93319 115.93 9.33544C115.403 8.73769 114.701 8.43882 113.824 8.43882C112.999 8.43882 112.262 8.68495 111.612 9.17722C110.963 9.6519 110.454 10.2848 110.086 11.076C109.717 11.8495 109.533 12.6934 109.533 13.6076C109.533 14.6449 109.796 15.4624 110.322 16.0601C110.849 16.6579 111.551 16.9568 112.429 16.9568ZM126.41 19.6466C125.199 19.6466 124.146 19.462 123.251 19.0928C122.356 18.706 121.654 18.1786 121.145 17.5105C120.653 16.8249 120.416 16.0425 120.434 15.1635H123.461C123.479 15.603 123.61 15.981 123.856 16.2975C124.102 16.6139 124.453 16.8601 124.909 17.0359C125.366 17.2117 125.91 17.2996 126.541 17.2996C127.349 17.2996 127.972 17.1589 128.41 16.8776C128.849 16.5963 129.069 16.2008 129.069 15.6909C129.069 15.3393 128.955 15.0492 128.726 14.8207C128.498 14.5921 128.138 14.3899 127.647 14.2141L125.646 13.4757C124.418 13.0362 123.532 12.5352 122.987 11.9726C122.461 11.41 122.198 10.7155 122.198 9.88924C122.198 9.02778 122.426 8.28059 122.882 7.64768C123.356 6.99719 124.005 6.49613 124.83 6.14452C125.673 5.7929 126.638 5.61709 127.726 5.61709C128.814 5.61709 129.762 5.7929 130.569 6.14452C131.394 6.47855 132.035 6.94445 132.491 7.54219C132.965 8.13995 133.202 8.83439 133.202 9.62553H130.174C130.174 9.27391 130.069 8.97504 129.858 8.7289C129.648 8.46519 129.341 8.2718 128.937 8.14874C128.551 8.02567 128.086 7.96414 127.542 7.96414C126.805 7.96414 126.234 8.0872 125.831 8.33333C125.444 8.57947 125.251 8.93108 125.251 9.38819C125.251 9.70464 125.374 9.97715 125.62 10.2057C125.883 10.4167 126.322 10.6364 126.936 10.865L129.042 11.6297C130.078 11.9989 130.85 12.4912 131.359 13.1065C131.868 13.7043 132.122 14.4339 132.122 15.2954C132.122 16.1568 131.885 16.9216 131.412 17.5897C130.938 18.2402 130.271 18.75 129.411 19.1192C128.551 19.4708 127.551 19.6466 126.41 19.6466ZM74.9288 0.34283L70.5588 19.3302H73.8758L75.5947 11.8619C75.9164 10.7697 76.4316 9.90996 77.1402 9.2827C77.8948 8.61463 78.7899 8.28059 79.8253 8.28059C80.6853 8.28059 81.2908 8.53552 81.6418 9.04536C81.9928 9.53763 82.0542 10.276 81.8261 11.2606L79.9833 19.3302H83.3266L85.2484 10.9968C85.6169 9.36182 85.4414 8.06083 84.7219 7.09388C84.0199 6.10936 82.9054 5.61709 81.3785 5.61709C80.308 5.61709 79.2813 5.90718 78.2985 6.48734C77.5876 6.90698 76.9777 7.43239 76.4689 8.06357L78.2458 0.34283H74.9288ZM67.3142 19.5939C65.6996 19.5939 64.5676 19.1631 63.9182 18.3017C63.2864 17.4402 63.146 16.2271 63.497 14.6624L64.9239 8.49156H62.3387L62.9179 5.8808H65.5275L66.2349 2.82172L69.8414 1.58227L68.8467 5.8808H72.474L71.8685 8.49156H68.2425L66.735 15.0053C66.5946 15.6558 66.6648 16.1392 66.9456 16.4557C67.2265 16.7546 67.7091 16.904 68.3935 16.904C68.7446 16.904 69.0429 16.8864 69.2886 16.8513C69.5519 16.7985 69.7888 16.737 69.9994 16.6667L69.3939 19.251C69.1658 19.3565 68.8762 19.4356 68.5252 19.4884C68.1917 19.5587 67.7881 19.5939 67.3142 19.5939ZM51.3008 18.6973C52.3713 19.295 53.6174 19.5939 55.039 19.5939C56.6185 19.5939 57.926 19.2247 58.9614 18.4863C60.0145 17.7479 60.7603 16.7458 61.1991 15.48H58.0664C57.8207 16.025 57.4346 16.4293 56.9081 16.693C56.3816 16.9568 55.7673 17.0886 55.0653 17.0886C53.8543 17.0886 52.9154 16.7106 52.2485 15.9546C51.7542 15.3658 51.448 14.5835 51.33 13.6076H61.4624C61.4975 13.3966 61.5238 13.1857 61.5413 12.9747C61.5589 12.7637 61.5677 12.5352 61.5677 12.289C61.5677 10.9529 61.2956 9.78376 60.7516 8.78165C60.2075 7.77954 59.4441 7.00598 58.4613 6.46097C57.4785 5.89838 56.3201 5.61709 54.9863 5.61709C53.5823 5.61709 52.3538 5.91596 51.3008 6.51371C50.2477 7.09388 49.4229 7.91139 48.8262 8.96625C48.247 10.0035 47.9574 11.2078 47.9574 12.5791C47.9574 13.9504 48.247 15.1635 48.8262 16.2184C49.4229 17.2732 50.2477 18.0995 51.3008 18.6973ZM58.198 11.2869H51.3827C51.527 10.4665 51.8156 9.79841 52.2485 9.2827C52.9154 8.50914 53.8104 8.12236 54.9337 8.12236C55.9691 8.12236 56.7764 8.43882 57.3556 9.07173C57.8338 9.59435 58.1146 10.3327 58.198 11.2869ZM36.5727 19.3302V0.158229H39.8897V11.509L45.0495 5.8808H49.051L42.8825 12.2502L49.3142 19.3302H45.2338L39.8897 13.2153V19.3302H36.5727ZM31.3704 18.1698C31.423 18.5918 31.4932 18.9786 31.581 19.3302H34.898C34.7751 18.8379 34.6786 18.372 34.6084 17.9325C34.5558 17.493 34.5294 17.0622 34.5294 16.6403V10.5485C34.5294 8.93108 34.0556 7.70921 33.1079 6.88291C32.1602 6.03903 30.7649 5.61709 28.9221 5.61709C27.1496 5.61709 25.7368 6.00387 24.6837 6.77743C23.6307 7.55099 23.034 8.56189 22.8936 9.81013H26.079C26.1843 9.26512 26.4651 8.85197 26.9214 8.57068C27.3953 8.2718 28.0271 8.12236 28.8168 8.12236C29.6241 8.12236 30.2209 8.30696 30.607 8.67616C31.0106 9.02778 31.2124 9.55521 31.2124 10.2584V10.9302L27.6322 11.4715C26 11.7177 24.7364 12.2011 23.8413 12.9219C22.9463 13.6428 22.4987 14.6185 22.4987 15.8492C22.4987 16.9919 22.8936 17.9061 23.6834 18.5918C24.4907 19.2598 25.57 19.5939 26.9214 19.5939C28.0797 19.5939 29.0538 19.3478 29.8435 18.8555C30.4779 18.4548 30.9714 17.9131 31.3241 17.2301C31.332 17.5809 31.3475 17.8941 31.3704 18.1698ZM31.2124 14.6097V13.0406L28.185 13.5021C27.3953 13.6252 26.7986 13.8449 26.3949 14.1614C26.0088 14.4778 25.8157 14.9174 25.8157 15.48C25.8157 15.9898 26 16.3854 26.3686 16.6667C26.7371 16.9304 27.2461 17.0622 27.8954 17.0622C28.8432 17.0622 29.6329 16.8249 30.2647 16.3502C30.8965 15.8755 31.2124 15.2954 31.2124 14.6097ZM0 19.3302V5.8808H3.23802V8.35355C3.67212 7.60374 4.2425 6.99047 4.94917 6.51371C5.80913 5.91596 6.8095 5.61709 7.95026 5.61709C9.31918 5.61709 10.3985 6.01266 11.1883 6.8038C11.6105 7.21737 11.9199 7.69627 12.1164 8.2405C12.5369 7.54188 13.0963 6.96628 13.7945 6.51371C14.6896 5.91596 15.725 5.61709 16.9009 5.61709C18.3049 5.61709 19.4018 6.02145 20.1916 6.83017C20.9989 7.62131 21.4025 8.67616 21.4025 9.99473V19.3302H18.0592V10.654C18.0592 9.86287 17.8662 9.2827 17.4801 8.9135C17.0939 8.52672 16.5411 8.33333 15.8216 8.33333C15.1722 8.33333 14.5843 8.48277 14.0578 8.78165C13.5312 9.08052 13.1188 9.50246 12.8205 10.0475C12.5221 10.5925 12.3729 11.2254 12.3729 11.9462V19.3302H9.0296V10.654C9.0296 9.86287 8.82778 9.2827 8.42412 8.9135C8.03802 8.52672 7.48518 8.33333 6.76562 8.33333C6.13381 8.33333 5.55465 8.48277 5.02815 8.78165C4.50164 9.08052 4.08043 9.50246 3.76453 10.0475C3.46617 10.5925 3.317 11.2254 3.317 11.9462V19.3302H0ZM139.079 12.3666C139.856 12.6983 140.689 12.8641 141.579 12.8641C142.47 12.8641 143.303 12.6983 144.079 12.3666C144.855 12.035 145.534 11.5776 146.117 10.9945C146.71 10.3999 147.172 9.71379 147.503 8.93623C147.834 8.15867 148 7.32393 148 6.43203C148 5.54012 147.834 4.70538 147.503 3.92782C147.172 3.15026 146.71 2.4699 146.117 1.88673C145.534 1.29212 144.855 0.829016 144.079 0.49741C143.303 0.165803 142.47 0 141.579 0C140.689 0 139.856 0.165803 139.079 0.49741C138.303 0.829016 137.618 1.29212 137.025 1.88673C136.443 2.4699 135.986 3.15026 135.655 3.92782C135.324 4.70538 135.158 5.54012 135.158 6.43203C135.158 7.32393 135.324 8.15867 135.655 8.93623C135.986 9.71379 136.443 10.3999 137.025 10.9945C137.618 11.5776 138.303 12.035 139.079 12.3666ZM143.668 11.4747C143.017 11.7606 142.321 11.9035 141.579 11.9035C140.826 11.9035 140.118 11.7606 139.456 11.4747C138.805 11.1889 138.229 10.7944 137.727 10.2912C137.236 9.78812 136.848 9.20495 136.562 8.54173C136.288 7.87852 136.151 7.17528 136.151 6.43203C136.151 5.68877 136.288 4.98554 136.562 4.32232C136.848 3.65911 137.236 3.07594 137.727 2.57281C138.229 2.06968 138.805 1.67519 139.456 1.38932C140.118 1.10345 140.826 0.960516 141.579 0.960516C142.321 0.960516 143.017 1.10345 143.668 1.38932C144.33 1.67519 144.907 2.06968 145.397 2.57281C145.9 3.07594 146.293 3.65911 146.579 4.32232C146.864 4.98554 147.007 5.68877 147.007 6.43203C147.007 7.17528 146.864 7.87852 146.579 8.54173C146.293 9.20495 145.9 9.78812 145.397 10.2912C144.907 10.7944 144.33 11.1889 143.668 11.4747ZM138.891 2.74433V10.1197H140.227V6.99805H141.802C142.247 6.99805 142.578 7.11239 142.795 7.34109C143.012 7.56978 143.12 7.91282 143.12 8.37021V9.24497C143.12 9.43936 143.126 9.61088 143.137 9.75953C143.149 9.89675 143.166 10.0168 143.189 10.1197H144.541C144.518 9.93677 144.496 9.77668 144.473 9.63946C144.461 9.49081 144.456 9.35931 144.456 9.24497V8.02717C144.456 7.50117 144.296 7.09524 143.976 6.80937C143.8 6.6513 143.586 6.54042 143.336 6.47675C144.162 6.1396 144.576 5.57011 144.576 4.76828C144.576 4.13937 144.353 3.64767 143.908 3.2932C143.463 2.92729 142.846 2.74433 142.059 2.74433H138.891ZM140.227 5.93462V3.85922H141.99C142.401 3.85922 142.709 3.94498 142.915 4.1165C143.132 4.28802 143.24 4.5453 143.24 4.88834C143.24 5.21995 143.132 5.47723 142.915 5.66018C142.698 5.84314 142.39 5.93462 141.99 5.93462H140.227Z" fill="white"/>
</svg>
