<?xml version="1.0" encoding="UTF-8"?>
<svg id="Layer_1" xmlns="http://www.w3.org/2000/svg" xmlns:xlink="http://www.w3.org/1999/xlink" version="1.1" viewBox="0 0 221.5 48.2">
  <!-- Generator: Adobe Illustrator 29.2.1, SVG Export Plug-In . SVG Version: 2.1.0 Build 116)  -->
  <defs>
    <style>
      .st0 {
        fill: none;
      }

      .st1 {
        fill: #ffc3b1;
      }

      .st2 {
        clip-path: url(#clippath);
      }
    </style>
    <clipPath id="clippath">
      <rect class="st0" x="0" y="0" width="48.2" height="48.2"/>
    </clipPath>
  </defs>
  <g>
    <path d="M63.4,11.9v25h-4.4V11.9h4.4ZM68.9,28.2h-6.6v-3.9h5.6c1.5,0,2.7-.4,3.4-1.1.8-.8,1.2-1.8,1.2-3.2s-.4-2.4-1.2-3.1c-.8-.7-1.9-1.1-3.4-1.1h-6.1v-3.9h7c1.7,0,3.1.3,4.4,1,1.2.7,2.2,1.6,2.9,2.9.7,1.2,1,2.7,1,4.3s-.3,3-1,4.3c-.7,1.2-1.6,2.2-2.9,2.9-1.2.7-2.7,1-4.4,1Z"/>
    <path d="M90.9,19.9v3.9h-1.5c-1.5,0-2.7.4-3.6,1.2-.9.8-1.3,2-1.3,3.7v8.2h-4.2v-16.9h3.9l.3,3.5h-.4c.2-1.1.8-2,1.6-2.7.8-.7,1.9-1.1,3.3-1.1s.6,0,.9,0c.3,0,.6,0,1,.2Z"/>
    <path d="M92.1,28.4c0-1.8.4-3.3,1.2-4.6.8-1.3,1.8-2.4,3.2-3.1,1.4-.8,2.9-1.1,4.7-1.1s3.3.4,4.7,1.1c1.4.8,2.4,1.8,3.2,3.1.8,1.3,1.2,2.9,1.2,4.6s-.4,3.3-1.2,4.6-1.8,2.4-3.2,3.1c-1.4.8-2.9,1.1-4.7,1.1s-3.3-.4-4.7-1.1c-1.4-.8-2.4-1.8-3.2-3.1-.8-1.3-1.2-2.9-1.2-4.6ZM96.3,28.4c0,1,.2,1.9.6,2.7s1,1.4,1.7,1.8c.7.4,1.6.6,2.5.6s1.8-.2,2.5-.6c.7-.4,1.3-1,1.7-1.8.4-.8.6-1.7.6-2.7s-.2-2-.6-2.7c-.4-.8-1-1.4-1.7-1.8-.7-.4-1.6-.7-2.5-.7s-1.8.2-2.5.7c-.7.4-1.3,1-1.7,1.8-.4.8-.6,1.7-.6,2.7Z"/>
    <path d="M117.7,36.9h-4.2v-16.9h3.8l.5,3-.5-.4c.3-.8,1-1.5,1.9-2.2s2.1-.9,3.4-.9,2.7.4,3.6,1.2c.9.8,1.6,1.8,2,3.1h-.7c.3-1.3.9-2.3,1.9-3.1,1-.8,2.3-1.2,3.8-1.2s3.6.6,4.7,1.7c1.1,1.2,1.6,2.7,1.6,4.6v11.1h-4.1v-10c0-1.2-.3-2.1-.9-2.8-.6-.6-1.4-.9-2.4-.9s-1.2.1-1.8.4c-.5.3-1,.7-1.3,1.3-.3.6-.5,1.4-.5,2.3v9.6h-4.2v-10c0-1.2-.3-2.1-.9-2.7-.6-.6-1.4-.9-2.4-.9s-1.3.1-1.8.4c-.5.3-1,.7-1.3,1.3-.3.6-.5,1.4-.5,2.3v9.6Z"/>
    <path d="M148.8,37.3c-1.8,0-3.2-.5-4.2-1.5s-1.6-2.2-1.6-3.8.5-2.8,1.6-3.7c1.1-.9,2.6-1.5,4.6-1.6l5.1-.4v-.4c0-.8-.1-1.4-.4-1.9-.3-.5-.7-.8-1.2-1-.5-.2-1.1-.3-1.8-.3-1.2,0-2.2.2-2.8.7-.7.5-1,1.2-1,2.1h-3.6c0-1.2.3-2.3.9-3.2.6-.9,1.5-1.6,2.7-2.1,1.2-.5,2.5-.8,4-.8s2.8.3,3.9.8c1.1.5,1.9,1.3,2.5,2.4.6,1.1.9,2.4.9,4v10.3h-3.7l-.3-2.5c-.4.9-1.1,1.6-2.1,2.1s-2.2.8-3.5.8ZM150.2,34.2c1.3,0,2.3-.4,3.1-1.1.8-.7,1.1-1.7,1.1-3v-.9l-3.5.3c-1.3.1-2.2.4-2.8.8-.5.4-.8,1-.8,1.7s.2,1.3.8,1.7c.5.4,1.2.6,2.1.6Z"/>
    <path d="M173.2,19.9v3.9h-1.5c-1.5,0-2.7.4-3.6,1.2-.9.8-1.3,2-1.3,3.7v8.2h-4.2v-16.9h3.9l.3,3.5h-.4c.2-1.1.8-2,1.6-2.7.8-.7,1.9-1.1,3.3-1.1s.6,0,.9,0c.3,0,.6,0,1,.2Z"/>
    <path d="M180.2,36.9h-4.1V11.4h4.1v15.6l6.6-7.1h5.2l-6.4,6.7,6.3,10.2h-4.8l-4.4-7.1-2.5,2.6v4.6Z"/>
    <path d="M201.2,37.3c-1.7,0-3.1-.4-4.4-1.1-1.3-.8-2.3-1.8-3-3.1-.7-1.3-1.1-2.9-1.1-4.6s.4-3.3,1.1-4.7c.7-1.3,1.7-2.4,3-3.2,1.3-.8,2.7-1.1,4.4-1.1s3.2.4,4.4,1.1c1.2.7,2.2,1.7,2.9,3,.7,1.3,1,2.8,1,4.6v1.3h-14.5s0-2.6,0-2.6h10.3c0-1.2-.4-2.1-1.1-2.8-.7-.7-1.7-1.1-3-1.1s-1.8.2-2.5.6-1.2,1-1.5,1.8c-.3.8-.5,1.8-.5,3,0,1.8.4,3.2,1.2,4.1.8.9,2,1.4,3.5,1.4s2.1-.2,2.8-.6c.7-.4,1.2-1,1.5-1.8h3.9c-.4,1.8-1.3,3.3-2.7,4.3-1.4,1-3.3,1.6-5.5,1.6Z"/>
    <path d="M210.9,20h10.7v3.5h-10.7v-3.5ZM218.3,36.9h-4.2V14.7h4.2v22.2Z"/>
  </g>
  <g class="st2">
    <g>
      <path d="M34.1,37.7c-2.5,1.9-5.5,3-8.6,3.2-3.1.3-6.2-.3-9-1.8-2.8-1.4-5.1-3.6-6.8-6.2-1.6-2.7-2.5-5.7-2.5-8.8,0-3.1.9-6.2,2.5-8.8,1.6-2.7,4-4.8,6.8-6.2,2.8-1.4,5.9-2,9-1.7,3.1.3,6.1,1.4,8.6,3.2l4.7-5.5C35.2,2.3,31,.6,26.5.1c-4.5-.4-9,.4-13,2.4-4,2-7.4,5.1-9.8,8.9C1.3,15.2,0,19.6,0,24.1c0,4.5,1.3,8.9,3.6,12.7,2.4,3.8,5.8,6.9,9.8,8.9,4,2,8.5,2.8,13,2.4,4.5-.4,8.7-2.1,12.3-4.9l-4.7-5.5Z"/>
      <path class="st1" d="M35.8,36.3l4.7,5.5c2.4-2.3,4.4-5,5.7-8,1.3-3,2-6.3,2-9.7,0-3.3-.7-6.6-2-9.7-1.3-3-3.3-5.8-5.7-8l-4.7,5.5c1.6,1.6,3,3.5,3.8,5.6.9,2.1,1.4,4.3,1.4,6.6s-.5,4.5-1.4,6.6c-.9,2.1-2.2,4-3.8,5.6h0Z"/>
    </g>
  </g>
</svg>