<?xml version="1.0" encoding="UTF-8"?>
<svg id="Layer_1" xmlns="http://www.w3.org/2000/svg" version="1.1" viewBox="0 0 72.1 74">
  <!-- Generator: Adobe Illustrator 29.2.1, SVG Export Plug-In . SVG Version: 2.1.0 Build 116)  -->
  <path d="M36.1,0c-.6,0-1,.4-1,1v7h-14c-3.9,0-7,3.1-7,7v14c0,3.9,3.1,7,7,7h30c3.9,0,7-3.1,7-7v-14c0-3.9-3.1-7-7-7h-14V1c0-.6-.4-1-1-1ZM21.1,10h30c2.8,0,5,2.2,5,5v14c0,2.8-2.2,5-5,5h-30c-2.8,0-5-2.2-5-5v-14c0-2.8,2.2-5,5-5ZM28.1,18c-2.2,0-4,1.8-4,4s1.8,4,4,4,4-1.8,4-4-1.8-4-4-4ZM44.1,18c-2.2,0-4,1.8-4,4s1.8,4,4,4,4-1.8,4-4-1.8-4-4-4ZM36.1,44C12.4,44,3.6,57.5.4,65.5c-.8,1.9-.5,4.1.7,5.8,1.2,1.7,3.1,2.7,5.2,2.7h59.6c2.1,0,4-1,5.2-2.7,1.2-1.7,1.4-3.9.7-5.8-3.1-8-11.9-21.5-35.6-21.5ZM36.1,46c22.5,0,30.8,12.7,33.8,20.2.5,1.3.4,2.7-.4,3.9-.8,1.2-2.1,1.9-3.5,1.9H6.3c-1.4,0-2.7-.7-3.5-1.9-.8-1.2-1-2.6-.4-3.9,3-7.6,11.3-20.2,33.8-20.2Z"/>
</svg>