<?xml version="1.0" encoding="UTF-8"?>
<svg id="Layer_1" xmlns="http://www.w3.org/2000/svg" version="1.1" viewBox="0 0 63.6 72">
  <!-- Generator: Adobe Illustrator 29.2.1, SVG Export Plug-In . SVG Version: 2.1.0 Build 116)  -->
  <path d="M20,0c-.9,0-1.7.4-2.3,1.1s-.8,1.6-.7,2.4l.5,2.9c-1.1.5-6.4,2.6-8.5,3.4C3.7,11.7,0,16.5,0,22.1v36.1c0,3.2,2.6,5.8,5.8,5.8h4v3c0,2.8,2.2,5,5,5h34c2.8,0,5-2.2,5-5v-3h4c3.2,0,5.8-2.6,5.8-5.8V22.1c0-5.6-3.7-10.4-8.9-12.3-2.1-.8-7.4-2.9-8.6-3.4l.5-2.9c.1-.9,0-1.8-.7-2.4s-1.4-1.1-2.3-1.1h-5.2c-1.4,0-2.6,1-2.9,2.4l-3.7,17.7-3.7-17.7c-.3-1.4-1.5-2.4-2.9-2.4h-5.2ZM20,2h5.2c.5,0,.9.3,1,.8l4.6,22.3v44.9H14.8c-1.7,0-3-1.3-3-3V27c0-.6-.4-1-1-1s-1,.4-1,1v35h-4c-2.1,0-3.8-1.7-3.8-3.8V22.1c0-4.8,3.1-8.8,7.6-10.5,2.4-.9,9.3-3.7,9.3-3.7h0c.4-.2.7-.6.6-1.1l-.6-3.7c-.1-.6.4-1.2,1-1.2ZM38.4,2h5.2c.6,0,1.1.6,1,1.2l-.6,3.7c0,.5.2.9.6,1.1h0s7,2.9,9.4,3.7c4.5,1.6,7.6,5.7,7.6,10.5v36.1c0,2.1-1.7,3.8-3.8,3.8h-4V27c0-.6-.4-1-1-1s-1,.4-1,1v40c0,1.7-1.3,3-3,3h-16V25.1l4.6-22.3c0-.5.5-.8,1-.8Z"/>
</svg>