<?xml version="1.0" encoding="UTF-8"?>
<svg id="Layer_1" xmlns="http://www.w3.org/2000/svg" version="1.1" viewBox="0 0 72.9 74.5">
  <!-- Generator: Adobe Illustrator 29.2.1, SVG Export Plug-In . SVG Version: 2.1.0 Build 116)  -->
  <path d="M51.1,0c-2.3,0-4.6.8-6.4,2.5l-.3.2c-2.6,2.5-4.6,3.2-8.8,4.9-2.2.9-4.2,2.3-5.9,4l-7.1,6.9s0,0,0,0l-10.7,10.6c-1.7,1.7-3.1,3.7-4.1,5.9-.5,1.1-.7,1.7-1.6,3.6s-2.1,3.7-3.6,5.3c-2.8,2.8-3.5,7-1.7,10.5l5.4,10.6c2.8,5.5,8.5,9.1,14.7,9.2,5.8.1,15.5.3,18.6.3h1.2c5.2,0,13,0,16.9-3.7.2-.2.4-.5.6-.7,1.4-1.8,1.9-4.2,1.3-7,1.7-.5,2.9-1.3,3.6-2.3,1.6-2,1.8-4.8.6-8.5,1.5-.2,3.3-1.1,4.6-3.2,1.4-2.4,1.4-5.3.1-8.3,2.4-.9,4.2-3.3,4.2-6.1,0-1.4-.4-2.7-1.1-3.7l.7-9.3c.5-6.7-3-13.1-8.9-16.2l-8.4-4.5C53.9.4,52.5,0,51.1,0ZM51.1,2c1.1,0,2.2.3,3.2.8l8.4,4.5c5.2,2.8,8.3,8.4,7.8,14.3l-.6,7.6c-1-.7-2.2-1.1-3.5-1.1h-30.3c-.5,0-.8.2-.9.6h0c-2.9,9.8-7.8,14.3-11.3,15.2-1.3.3-2.4.2-3-.4-2.1-2.1-1.5-3.5,0-6.8,1.1-2.4,1.5-6.1,1.2-11.3-.1-2.1.6-4.1,2.1-5.5l7.1-6.9c1.5-1.5,3.3-2.7,5.3-3.5,4-1.7,6.4-2.5,9.4-5.3l.3-.2c1.4-1.3,3.2-2,5-1.9ZM20.1,23.9c0,.6,0,1.1,0,1.7.3,4.8,0,8.2-1,10.3-1.5,3.2-2.8,5.9.4,9.1,1.1,1.1,2.9,1.4,4.9.9,1.9-.5,8.5-3.1,12.5-15.9h29.5c2.5.1,4.6,2.2,4.5,4.7,0,2.4-2.2,4.6-4.6,4.5h-11.9c-.6-.1-1,.3-1,.9,0,.6.4,1,1,1h11.9c.2.1.3,0,.4,0,1.2,2.5,1.2,5,.1,6.8-.8,1.3-2,2.2-3.4,2.3-2.5.1-5.2,0-9,0h-1.6c-.6,0-1,.4-1,.9,0,.6.4,1,1,1h1.6c3.1.1,5.4.2,7.6,0,1.1,3.3,1,5.7-.1,7.2-1.5,1.9-5.1,2.5-10.6,2-.5,0-1,.3-1.1.9,0,.6.3,1,.9,1.1,2.8.3,5,.2,6.8,0,.4,2.2.1,4-1,5.3-2.9,3.7-11.1,3.7-15.9,3.7h-1.2c-2.8,0-11.7-.2-18.6-.3-5.5-.1-10.4-3.2-12.9-8.1l-5.4-10.6c-1.4-2.7-.9-6,1.4-8.2,1.7-1.7,3-3.6,4-5.8s1-2.4,1.6-3.6c.9-2,2.1-3.8,3.6-5.3l6.7-6.6Z"/>
</svg>