<?xml version="1.0" encoding="UTF-8"?>
<svg id="Layer_1" xmlns="http://www.w3.org/2000/svg" version="1.1" viewBox="0 0 74 67.6">
  <!-- Generator: Adobe Illustrator 29.2.1, SVG Export Plug-In . SVG Version: 2.1.0 Build 116)  -->
  <path d="M62.4,0c-.9.1-1.8.5-2.6,1.1l-4.3,3.5L20.8,15.6H7c-3.9,0-7,3.1-7,7v18c0,3.9,3.1,7,7,7h3c.2,8.4,2.5,15.4,3.5,18.1.4,1.2,1.5,1.9,2.8,1.9h6.6c1,0,1.9-.5,2.5-1.3.6-.8.7-1.9.3-2.8-1.3-3.3-3.4-9.5-3.7-15.5l33.4,10.5,4,4c1,1,2.2,1.5,3.5,1.5s1.3-.1,2-.4c1.9-.8,3.1-2.6,3.1-4.6v-20.4c3.4-.5,6-3.4,6-6.9s-2.6-6.4-6-6.9V5c0-1.9-1.1-3.7-2.9-4.5-.9-.4-1.8-.6-2.8-.5ZM62.6,2c.5,0,1.1,0,1.6.3,1.1.5,1.7,1.5,1.7,2.7v53.9c0,1.5-1,2.4-1.9,2.8-.9.4-2.2.4-3.3-.7l-4.2-4.2c0-.1-.2-.2-.4-.3l-34.3-10.8v-28.5L56.3,6.5c.1,0,.2,0,.3-.2l4.5-3.7c.5-.4,1-.6,1.5-.7ZM7,17.6h13v28H7c-2.8,0-5-2.2-5-5v-18c0-2.8,2.2-5,5-5ZM12,47.6h8c.2,6.5,2.5,13.2,3.9,16.6.1.3,0,.6,0,.9-.2.3-.5.4-.8.4h-6.6c-.4,0-.8-.2-.9-.6-1-2.6-3.2-9.3-3.4-17.4Z"/>
</svg>