<?xml version="1.0" encoding="UTF-8"?>
<svg id="Layer_1" xmlns="http://www.w3.org/2000/svg" xmlns:xlink="http://www.w3.org/1999/xlink" version="1.1" viewBox="0 0 48.2 48.2">
  <!-- Generator: Adobe Illustrator 29.3.1, SVG Export Plug-In . SVG Version: 2.1.0 Build 151)  -->
  <defs>
    <style>
      .st0 {
        fill: none;
      }

      .st1 {
        fill: #ffc3b1;
      }

      .st2 {
        clip-path: url(#clippath);
      }
    </style>
    <clipPath id="clippath">
      <rect class="st0" y="0" width="48.2" height="48.2"/>
    </clipPath>
  </defs>
  <g class="st2">
    <g>
      <path d="M34.1,37.7c-2.5,1.9-5.5,3-8.6,3.2-3.1.3-6.2-.3-9-1.8-2.8-1.4-5.1-3.6-6.8-6.2-1.6-2.7-2.5-5.7-2.5-8.8s.9-6.2,2.5-8.8c1.6-2.7,4-4.8,6.8-6.2,2.8-1.4,5.9-2,9-1.7s6.1,1.4,8.6,3.2l4.7-5.5C35.2,2.3,31,.6,26.5.1c-4.5-.4-9,.4-13,2.4S6.1,7.6,3.7,11.4C1.3,15.2,0,19.6,0,24.1s1.3,8.9,3.6,12.7c2.4,3.8,5.8,6.9,9.8,8.9,4,2,8.5,2.8,13,2.4,4.5-.4,8.7-2.1,12.3-4.9l-4.7-5.5h0Z"/>
      <path class="st1" d="M35.8,36.3l4.7,5.5c2.4-2.3,4.4-5,5.7-8s2-6.3,2-9.7-.7-6.6-2-9.7c-1.3-3-3.3-5.8-5.7-8l-4.7,5.5c1.6,1.6,3,3.5,3.8,5.6.9,2.1,1.4,4.3,1.4,6.6s-.5,4.5-1.4,6.6-2.2,4-3.8,5.6h0Z"/>
    </g>
  </g>
</svg>